<svg width="200" height="60" viewBox="0 0 200 60" fill="none" xmlns="http://www.w3.org/2000/svg">
  <!-- Snowflake Icon -->
  <g id="snowflake">
    <!-- Main snowflake paths (Lucide Snowflake icon) -->
    <path d="M20 8.5L20 21.5" stroke="#5FC5E1" stroke-width="2" stroke-linecap="round" stroke-linejoin="round">
      <animate attributeName="opacity" values="1;0.7;1" dur="2s" repeatCount="indefinite"/>
    </path>
    <path d="M26.5 15L13.5 15" stroke="#5FC5E1" stroke-width="2" stroke-linecap="round" stroke-linejoin="round">
      <animate attributeName="opacity" values="1;0.7;1" dur="2s" repeatCount="indefinite"/>
    </path>
    <path d="M24.33 11.17L15.67 19.83" stroke="#5FC5E1" stroke-width="2" stroke-linecap="round" stroke-linejoin="round">
      <animate attributeName="opacity" values="1;0.7;1" dur="2s" repeatCount="indefinite"/>
    </path>
    <path d="M24.33 18.83L15.67 10.17" stroke="#5FC5E1" stroke-width="2" stroke-linecap="round" stroke-linejoin="round">
      <animate attributeName="opacity" values="1;0.7;1" dur="2s" repeatCount="indefinite"/>
    </path>
    <!-- Outer crystal points -->
    <path d="M2.5 26.88C2.22 26.75 2.08 26.42 2.18 26.12L11.18 3.1C11.34 2.68 11.87 2.52 12.25 2.77C12.34 2.83 12.42 2.91 12.48 3L21.48 26.02C21.63 26.39 21.46 26.82 21.09 26.97L12.58 31.83C12.23 32 11.81 32 11.46 31.83L2.95 26.97" stroke="#5FC5E1" stroke-width="1.5" stroke-linecap="round" stroke-linejoin="round">
      <animate attributeName="opacity" values="1;0.7;1" dur="2s" repeatCount="indefinite"/>
    </path>
  </g>

  <!-- Text: NXO -->
  <text x="50" y="38" font-family="Arial, Helvetica, sans-serif" font-size="28" font-weight="900" fill="#FFFFFF" letter-spacing="-0.5">
    NXO
  </text>
  
  <!-- Text: Land (with gold color) -->
  <text x="113" y="38" font-family="Arial, Helvetica, sans-serif" font-size="28" font-weight="900" fill="#F59E0B" letter-spacing="-0.5">
    Land
  </text>
</svg>

